<svg xmlns="http://www.w3.org/2000/svg" version="1.1" xmlnsXlink="http://www.w3.org/1999/xlink" xmlnsSvgjs="http://svgjs.dev/svgjs" viewBox="0 0 8.699961961702138 3.023993795155049"><g transform="matrix(1,0,0,1,3.01841710185894,0.4664593975775242)"><g><path d=" M 1.2435 0.1140000000000001 L 1.2435 0.14400000000000013 Q 1.1925000000000001 0.14550000000000018 1.16625 0.1552500000000001 Q 1.1400000000000001 0.16500000000000004 1.131 0.19125000000000014 Q 1.122 0.21750000000000014 1.122 0.27300000000000013 L 1.122 1.0170000000000001 Q 1.122 1.0710000000000002 1.131 1.098 Q 1.1400000000000001 1.1250000000000002 1.16625 1.1340000000000001 Q 1.1925000000000001 1.1430000000000002 1.2435 1.1460000000000001 L 1.2435 1.1760000000000002 Q 1.209 1.1730000000000003 1.1572500000000001 1.1722500000000002 Q 1.1055 1.1715000000000002 1.053 1.1715000000000002 Q 0.9945 1.1715000000000002 0.9435 1.1722500000000002 Q 0.8925000000000001 1.1730000000000003 0.861 1.1760000000000002 L 0.861 1.1460000000000001 Q 0.912 1.1430000000000002 0.93825 1.1340000000000001 Q 0.9645 1.1250000000000002 0.9735 1.098 Q 0.9825 1.0710000000000002 0.9825 1.0170000000000001 L 0.9825 0.19200000000000017 L 0.9885 0.19650000000000012 L 0.621 1.1835000000000002 L 0.597 1.1835000000000002 L 0.219 0.2100000000000002 L 0.219 1.0020000000000002 Q 0.219 1.056 0.22875 1.08675 Q 0.23850000000000002 1.1175000000000002 0.26775 1.1302500000000002 Q 0.297 1.1430000000000002 0.3555 1.1460000000000001 L 0.3555 1.1760000000000002 Q 0.3285 1.1730000000000003 0.28500000000000003 1.1722500000000002 Q 0.2415 1.1715000000000002 0.2025 1.1715000000000002 Q 0.165 1.1715000000000002 0.12675 1.1722500000000002 Q 0.0885 1.1730000000000003 0.063 1.1760000000000002 L 0.063 1.1460000000000001 Q 0.114 1.1430000000000002 0.14025 1.1302500000000002 Q 0.1665 1.1175000000000002 0.17550000000000002 1.08675 Q 0.1845 1.056 0.1845 1.0020000000000002 L 0.1845 0.27300000000000013 Q 0.1845 0.21750000000000014 0.17550000000000002 0.19125000000000014 Q 0.1665 0.16500000000000004 0.14025 0.1552500000000001 Q 0.114 0.14550000000000018 0.063 0.14400000000000013 L 0.063 0.1140000000000001 Q 0.0885 0.11550000000000016 0.12675 0.11700000000000021 Q 0.165 0.11850000000000005 0.2025 0.11850000000000005 Q 0.23550000000000001 0.11850000000000005 0.27075 0.11700000000000021 Q 0.306 0.11550000000000016 0.33 0.1140000000000001 L 0.6705 1.0110000000000001 L 0.645 1.0230000000000001 L 0.9825 0.11850000000000005 Q 1.0005 0.11850000000000005 1.01775 0.11850000000000005 Q 1.035 0.11850000000000005 1.053 0.11850000000000005 Q 1.1055 0.11850000000000005 1.1572500000000001 0.11700000000000021 Q 1.209 0.11550000000000016 1.2435 0.1140000000000001 Z M 2.029386474609375 0.3870000000000001 L 2.029386474609375 1.0140000000000002 Q 2.029386474609375 1.0815000000000001 2.054136474609375 1.1137500000000002 Q 2.078886474609375 1.1460000000000001 2.1433864746093754 1.1460000000000001 L 2.1433864746093754 1.1775000000000002 Q 2.0968864746093754 1.1730000000000003 2.0503864746093754 1.1730000000000003 Q 2.006886474609375 1.1730000000000003 1.9671364746093751 1.1775000000000002 Q 1.9273864746093752 1.1820000000000002 1.8943864746093753 1.1940000000000002 L 1.8943864746093753 1.0170000000000001 Q 1.8568864746093752 1.1145 1.7886364746093752 1.15575 Q 1.720386474609375 1.197 1.6483864746093753 1.197 Q 1.595886474609375 1.197 1.5568864746093751 1.1820000000000002 Q 1.5178864746093752 1.1670000000000003 1.4923864746093751 1.1400000000000001 Q 1.4638864746093752 1.11 1.4533864746093752 1.062 Q 1.442886474609375 1.0140000000000002 1.442886474609375 0.9435000000000001 L 1.442886474609375 0.5670000000000002 Q 1.442886474609375 0.49950000000000017 1.4188864746093752 0.46725000000000017 Q 1.3948864746093752 0.43500000000000016 1.3288864746093751 0.43500000000000016 L 1.3288864746093751 0.4035000000000002 Q 1.3768864746093752 0.40800000000000014 1.4218864746093751 0.40800000000000014 Q 1.4653864746093752 0.40800000000000014 1.5051364746093752 0.40275000000000016 Q 1.5448864746093751 0.3975000000000002 1.5778864746093753 0.3870000000000001 L 1.5778864746093753 0.9765000000000001 Q 1.5778864746093753 1.0230000000000001 1.583886474609375 1.062 Q 1.5898864746093753 1.1010000000000002 1.613886474609375 1.1250000000000002 Q 1.637886474609375 1.1490000000000002 1.6918864746093751 1.1490000000000002 Q 1.7503864746093751 1.1490000000000002 1.796136474609375 1.1130000000000002 Q 1.841886474609375 1.0770000000000002 1.8681364746093752 1.0155 Q 1.8943864746093753 0.9540000000000002 1.8943864746093753 0.8775000000000002 L 1.8943864746093753 0.5670000000000002 Q 1.8943864746093753 0.49950000000000017 1.8703864746093752 0.46725000000000017 Q 1.8463864746093752 0.43500000000000016 1.7803864746093752 0.43500000000000016 L 1.7803864746093752 0.4035000000000002 Q 1.828386474609375 0.40800000000000014 1.8733864746093751 0.40800000000000014 Q 1.9168864746093752 0.40800000000000014 1.9566364746093752 0.40275000000000016 Q 1.9963864746093751 0.3975000000000002 2.029386474609375 0.3870000000000001 Z M 2.503376953125 0.3825000000000002 Q 2.563376953125 0.3825000000000002 2.6053769531250004 0.40200000000000014 Q 2.647376953125 0.4215000000000001 2.6668769531250005 0.43800000000000017 Q 2.716376953125 0.47850000000000015 2.726876953125 0.3840000000000001 L 2.7613769531250005 0.3840000000000001 Q 2.7583769531250004 0.42600000000000016 2.7568769531250004 0.4837500000000001 Q 2.7553769531250003 0.5415000000000001 2.7553769531250003 0.6390000000000001 L 2.7208769531250003 0.6390000000000001 Q 2.7118769531250004 0.5835000000000001 2.6901269531250005 0.5310000000000001 Q 2.668376953125 0.47850000000000015 2.6263769531250003 0.4447500000000001 Q 2.584376953125 0.41100000000000014 2.516876953125 0.41100000000000014 Q 2.4643769531250004 0.41100000000000014 2.4291269531250004 0.44025000000000014 Q 2.3938769531250004 0.46950000000000014 2.3938769531250004 0.5265000000000002 Q 2.3938769531250004 0.5715000000000001 2.420876953125 0.6037500000000001 Q 2.447876953125 0.6360000000000001 2.491376953125 0.6637500000000002 Q 2.5348769531250004 0.6915000000000002 2.585876953125 0.7245000000000001 Q 2.6428769531250005 0.7605000000000002 2.6893769531250005 0.7980000000000002 Q 2.7358769531250005 0.8355000000000001 2.763626953125 0.8805000000000002 Q 2.7913769531250003 0.9255000000000002 2.7913769531250003 0.9870000000000001 Q 2.7913769531250003 1.056 2.7553769531250003 1.1025000000000003 Q 2.7193769531250003 1.1490000000000002 2.6616269531250003 1.1730000000000003 Q 2.6038769531250003 1.197 2.5348769531250004 1.197 Q 2.5018769531250005 1.197 2.4726269531250002 1.19175 Q 2.443376953125 1.1865 2.4163769531250003 1.1760000000000002 Q 2.401376953125 1.1685 2.385626953125 1.1580000000000001 Q 2.3698769531250004 1.1475000000000002 2.3548769531250002 1.1355000000000002 Q 2.339876953125 1.1235000000000002 2.327876953125 1.1362500000000002 Q 2.315876953125 1.1490000000000002 2.3098769531250003 1.1865 L 2.2753769531250003 1.1865 Q 2.2783769531250004 1.1385 2.279876953125 1.0695000000000001 Q 2.281376953125 1.0005000000000002 2.281376953125 0.8865000000000002 L 2.315876953125 0.8865000000000002 Q 2.326376953125 0.9705000000000001 2.3458769531250003 1.0335 Q 2.365376953125 1.0965000000000003 2.4073769531250004 1.1317500000000003 Q 2.4493769531250003 1.1670000000000003 2.5243769531250004 1.1670000000000003 Q 2.5543769531250002 1.1670000000000003 2.585126953125 1.1535000000000002 Q 2.6158769531250003 1.1400000000000001 2.6368769531250003 1.1085000000000003 Q 2.657876953125 1.0770000000000002 2.657876953125 1.0245000000000002 Q 2.657876953125 0.9585000000000001 2.609876953125 0.9165000000000001 Q 2.561876953125 0.8745000000000002 2.4883769531250004 0.8280000000000001 Q 2.434376953125 0.7935000000000001 2.387126953125 0.7590000000000001 Q 2.339876953125 0.7245000000000001 2.3106269531250003 0.6810000000000002 Q 2.281376953125 0.6375000000000002 2.281376953125 0.5760000000000002 Q 2.281376953125 0.5085000000000002 2.3121269531250004 0.4657500000000001 Q 2.342876953125 0.42300000000000015 2.3938769531250004 0.40275000000000016 Q 2.444876953125 0.3825000000000002 2.503376953125 0.3825000000000002 Z M 3.091317626953125 0.028500000000000192 Q 3.1303176269531248 0.028500000000000192 3.158817626953125 0.05700000000000016 Q 3.187317626953125 0.08550000000000013 3.187317626953125 0.12450000000000006 Q 3.187317626953125 0.1635000000000002 3.158817626953125 0.19200000000000017 Q 3.1303176269531248 0.22050000000000014 3.091317626953125 0.22050000000000014 Q 3.052317626953125 0.22050000000000014 3.0238176269531247 0.19200000000000017 Q 2.995317626953125 0.1635000000000002 2.995317626953125 0.12450000000000006 Q 2.995317626953125 0.08550000000000013 3.0238176269531247 0.05700000000000016 Q 3.052317626953125 0.028500000000000192 3.091317626953125 0.028500000000000192 Z M 3.169317626953125 0.3870000000000001 L 3.169317626953125 1.0365000000000002 Q 3.169317626953125 1.0995000000000001 3.195567626953125 1.122 Q 3.221817626953125 1.1445 3.283317626953125 1.1445 L 3.283317626953125 1.1760000000000002 Q 3.257817626953125 1.1745 3.206067626953125 1.1722500000000002 Q 3.154317626953125 1.1700000000000002 3.101817626953125 1.1700000000000002 Q 3.050817626953125 1.1700000000000002 2.998317626953125 1.1722500000000002 Q 2.945817626953125 1.1745 2.920317626953125 1.1760000000000002 L 2.920317626953125 1.1445 Q 2.981817626953125 1.1445 3.008067626953125 1.122 Q 3.034317626953125 1.0995000000000001 3.034317626953125 1.0365000000000002 L 3.034317626953125 0.5670000000000002 Q 3.034317626953125 0.49950000000000017 3.010317626953125 0.46725000000000017 Q 2.986317626953125 0.43500000000000016 2.920317626953125 0.43500000000000016 L 2.920317626953125 0.4035000000000002 Q 2.968317626953125 0.40800000000000014 3.0133176269531248 0.40800000000000014 Q 3.056817626953125 0.40800000000000014 3.096567626953125 0.40275000000000016 Q 3.136317626953125 0.3975000000000002 3.169317626953125 0.3870000000000001 Z M 3.749770751953125 0.3825000000000002 Q 3.797770751953125 0.3825000000000002 3.8427707519531253 0.3945000000000002 Q 3.8877707519531253 0.4065000000000002 3.923770751953125 0.4305000000000001 Q 3.9582707519531253 0.4530000000000002 3.976270751953125 0.4822500000000002 Q 3.994270751953125 0.5115000000000002 3.994270751953125 0.5460000000000002 Q 3.994270751953125 0.5865000000000001 3.971770751953125 0.6082500000000002 Q 3.949270751953125 0.6300000000000001 3.914770751953125 0.6300000000000001 Q 3.881770751953125 0.6300000000000001 3.857020751953125 0.6105000000000002 Q 3.832270751953125 0.5910000000000002 3.832270751953125 0.5550000000000002 Q 3.832270751953125 0.5205000000000002 3.851020751953125 0.49950000000000017 Q 3.869770751953125 0.47850000000000015 3.895270751953125 0.47250000000000014 Q 3.880270751953125 0.4455000000000001 3.8420207519531253 0.4275000000000001 Q 3.803770751953125 0.4095000000000001 3.760270751953125 0.4095000000000001 Q 3.7227707519531252 0.4095000000000001 3.685270751953125 0.4275000000000001 Q 3.647770751953125 0.4455000000000001 3.616270751953125 0.4867500000000001 Q 3.584770751953125 0.5280000000000001 3.565270751953125 0.5992500000000002 Q 3.545770751953125 0.6705000000000001 3.545770751953125 0.7770000000000001 Q 3.545770751953125 0.9090000000000001 3.575770751953125 0.9870000000000001 Q 3.6057707519531252 1.0650000000000002 3.654520751953125 1.0987500000000001 Q 3.703270751953125 1.1325 3.761770751953125 1.1325 Q 3.800770751953125 1.1325 3.8412707519531253 1.1175000000000002 Q 3.881770751953125 1.1025000000000003 3.917770751953125 1.06875 Q 3.953770751953125 1.0350000000000001 3.979270751953125 0.9780000000000002 L 4.007770751953125 0.9885000000000002 Q 3.992770751953125 1.0365000000000002 3.9582707519531253 1.0852500000000003 Q 3.923770751953125 1.1340000000000001 3.868270751953125 1.1655000000000002 Q 3.812770751953125 1.197 3.731770751953125 1.197 Q 3.638770751953125 1.197 3.563770751953125 1.1490000000000002 Q 3.4887707519531252 1.1010000000000002 3.444520751953125 1.0117500000000001 Q 3.400270751953125 0.9225000000000001 3.400270751953125 0.7995000000000001 Q 3.400270751953125 0.6765000000000001 3.444520751953125 0.5827500000000001 Q 3.4887707519531252 0.4890000000000001 3.568270751953125 0.4357500000000002 Q 3.647770751953125 0.3825000000000002 3.749770751953125 0.3825000000000002 Z M 4.331713623046875 1.1865 Q 4.2702136230468755 1.1865 4.2252136230468755 1.1632500000000001 Q 4.180213623046876 1.1400000000000001 4.156963623046876 1.098 Q 4.133713623046876 1.056 4.133713623046876 1.0005000000000002 Q 4.133713623046876 0.9345000000000001 4.164463623046875 0.8925000000000001 Q 4.195213623046875 0.8505000000000001 4.243213623046875 0.8250000000000002 Q 4.291213623046875 0.7995000000000001 4.344463623046876 0.7822500000000001 Q 4.397713623046875 0.7650000000000001 4.445713623046875 0.7492500000000002 Q 4.493713623046875 0.7335000000000002 4.524463623046875 0.7125000000000001 Q 4.555213623046875 0.6915000000000002 4.555213623046875 0.6570000000000001 L 4.555213623046875 0.5640000000000002 Q 4.555213623046875 0.5010000000000001 4.536463623046875 0.4680000000000002 Q 4.517713623046875 0.43500000000000016 4.486213623046876 0.4237500000000002 Q 4.454713623046875 0.4125000000000001 4.415713623046875 0.4125000000000001 Q 4.378213623046875 0.4125000000000001 4.335463623046875 0.42300000000000015 Q 4.292713623046875 0.4335000000000001 4.267213623046875 0.46650000000000014 Q 4.2957136230468755 0.47250000000000014 4.3167136230468754 0.49650000000000016 Q 4.337713623046875 0.5205000000000002 4.337713623046875 0.5580000000000002 Q 4.337713623046875 0.5955000000000001 4.313713623046875 0.6172500000000002 Q 4.289713623046875 0.6390000000000001 4.252213623046875 0.6390000000000001 Q 4.208713623046875 0.6390000000000001 4.188463623046875 0.6112500000000002 Q 4.168213623046875 0.5835000000000001 4.168213623046875 0.5490000000000002 Q 4.168213623046875 0.5100000000000001 4.187713623046875 0.4860000000000001 Q 4.207213623046875 0.4620000000000002 4.237213623046875 0.44100000000000017 Q 4.2717136230468755 0.41700000000000015 4.326463623046875 0.39975000000000016 Q 4.381213623046875 0.3825000000000002 4.450213623046875 0.3825000000000002 Q 4.511713623046875 0.3825000000000002 4.555213623046875 0.39675000000000016 Q 4.5987136230468755 0.41100000000000014 4.627213623046876 0.43800000000000017 Q 4.666213623046875 0.4740000000000001 4.678213623046875 0.5257500000000002 Q 4.690213623046875 0.5775000000000001 4.690213623046875 0.6495000000000002 L 4.690213623046875 1.0665000000000002 Q 4.690213623046875 1.104 4.701463623046875 1.1205 Q 4.712713623046875 1.1370000000000002 4.736713623046875 1.1370000000000002 Q 4.753213623046875 1.1370000000000002 4.768213623046876 1.1295000000000002 Q 4.783213623046875 1.122 4.804213623046875 1.1055000000000001 L 4.820713623046875 1.1310000000000002 Q 4.789213623046875 1.1550000000000002 4.760713623046875 1.1707500000000002 Q 4.732213623046875 1.1865 4.684213623046875 1.1865 Q 4.640713623046875 1.1865 4.612213623046875 1.1715000000000002 Q 4.583713623046875 1.1565 4.569463623046875 1.12725 Q 4.555213623046875 1.098 4.555213623046875 1.0530000000000002 Q 4.514713623046875 1.1205 4.4584636230468755 1.1535000000000002 Q 4.402213623046875 1.1865 4.331713623046875 1.1865 Z M 4.385713623046875 1.1265 Q 4.4352136230468755 1.1265 4.477963623046875 1.098 Q 4.520713623046875 1.0695000000000001 4.555213623046875 1.0125000000000002 L 4.555213623046875 0.7185000000000001 Q 4.537213623046875 0.7440000000000002 4.502713623046875 0.7612500000000002 Q 4.468213623046875 0.7785000000000002 4.427713623046875 0.7957500000000002 Q 4.3872136230468755 0.8130000000000002 4.350463623046875 0.8362500000000002 Q 4.313713623046875 0.8595000000000002 4.289713623046875 0.8970000000000001 Q 4.265713623046875 0.9345000000000001 4.265713623046875 0.9945000000000002 Q 4.265713623046875 1.0545000000000002 4.297963623046876 1.0905000000000002 Q 4.330213623046875 1.1265 4.385713623046875 1.1265 Z M 5.1191923828125 2.220446049250313e-16 L 5.1191923828125 1.0365000000000002 Q 5.1191923828125 1.0995000000000001 5.1454423828125 1.122 Q 5.1716923828125 1.1445 5.2331923828125 1.1445 L 5.2331923828125 1.1760000000000002 Q 5.2076923828125 1.1745 5.1559423828124995 1.1722500000000002 Q 5.1041923828125 1.1700000000000002 5.0516923828125 1.1700000000000002 Q 5.0006923828125 1.1700000000000002 4.9481923828125 1.1722500000000002 Q 4.8956923828125 1.1745 4.8701923828125 1.1760000000000002 L 4.8701923828125 1.1445 Q 4.9316923828125 1.1445 4.9579423828125 1.122 Q 4.9841923828125 1.0995000000000001 4.9841923828125 1.0365000000000002 L 4.9841923828125 0.18000000000000016 Q 4.9841923828125 0.11250000000000004 4.9601923828125 0.08025000000000015 Q 4.9361923828125 0.04800000000000004 4.8701923828125 0.04800000000000004 L 4.8701923828125 0.01650000000000018 Q 4.9181923828125 0.02100000000000013 4.9631923828125 0.02100000000000013 Q 5.0066923828125 0.02100000000000013 5.0464423828125 0.015750000000000153 Q 5.0861923828124995 0.010500000000000176 5.1191923828125 2.220446049250313e-16 Z" fill="#ffffff" fill-rule="nonzero"></path></g><g><path d=" M 0.5385 2.091075 L 0.5385 1.657575 L 0.34575 1.994325 L 0.31275000000000003 1.994325 L 0.11925000000000001 1.657575 L 0.11925000000000001 2.091075 L 0.06675 2.091075 L 0.06675 1.558575 L 0.12075 1.558575 L 0.3285 1.923075 L 0.5377500000000001 1.558575 L 0.591 1.558575 L 0.591 2.091075 L 0.5385 2.091075 Z M 0.7214648437500001 2.091075 L 0.7214648437500001 1.700325 L 0.77246484375 1.700325 L 0.77246484375 2.091075 L 0.7214648437500001 2.091075 Z M 0.7214648437500001 1.6185749999999999 L 0.7214648437500001 1.5435750000000001 L 0.77246484375 1.5435750000000001 L 0.77246484375 1.6185749999999999 L 0.7214648437500001 1.6185749999999999 Z M 0.8946822509765626 1.5435750000000001 L 0.9456822509765627 1.5435750000000001 L 0.9456822509765627 2.002575 Q 0.9456822509765627 2.031825 0.9561822509765626 2.040825 Q 0.9666822509765627 2.0498250000000002 0.9816822509765626 2.0498250000000002 Q 0.9951822509765627 2.0498250000000002 1.0086822509765627 2.046825 Q 1.0221822509765626 2.043825 1.0319322509765627 2.040825 L 1.0409322509765626 2.082075 Q 1.0266822509765627 2.088075 1.0060572509765626 2.091825 Q 0.9854322509765626 2.095575 0.9704322509765626 2.095575 Q 0.9359322509765626 2.095575 0.9153072509765626 2.075325 Q 0.8946822509765626 2.055075 0.8946822509765626 2.019825 L 0.8946822509765626 1.5435750000000001 Z M 1.2726617431640628 2.098575 Q 1.2306617431640627 2.098575 1.1946617431640627 2.08245 Q 1.1586617431640627 2.066325 1.1324117431640628 2.0382000000000002 Q 1.1061617431640627 2.010075 1.0915367431640628 1.973325 Q 1.0769117431640627 1.936575 1.0769117431640627 1.8945750000000001 Q 1.0769117431640627 1.839825 1.1020367431640627 1.794075 Q 1.1271617431640626 1.748325 1.1714117431640627 1.72095 Q 1.2156617431640626 1.693575 1.2719117431640627 1.693575 Q 1.3296617431640627 1.693575 1.3727867431640628 1.721325 Q 1.4159117431640627 1.749075 1.4406617431640627 1.7944499999999999 Q 1.4654117431640628 1.839825 1.4654117431640628 1.893825 Q 1.4654117431640628 1.899825 1.4654117431640628 1.90545 Q 1.4654117431640628 1.911075 1.4646617431640627 1.914075 L 1.1301617431640627 1.914075 Q 1.1339117431640626 1.956075 1.1537867431640627 1.9887 Q 1.1736617431640628 2.021325 1.2055367431640627 2.04045 Q 1.2374117431640628 2.059575 1.2749117431640626 2.059575 Q 1.3131617431640628 2.059575 1.3472867431640627 2.040075 Q 1.3814117431640627 2.020575 1.3949117431640627 1.989075 L 1.4391617431640626 2.001075 Q 1.4271617431640626 2.028825 1.4024117431640626 2.051325 Q 1.3776617431640628 2.073825 1.3442867431640626 2.0862 Q 1.3109117431640627 2.098575 1.2726617431640628 2.098575 Z M 1.1286617431640626 1.877325 L 1.4174117431640627 1.877325 Q 1.4144117431640626 1.834575 1.3945367431640627 1.802325 Q 1.3746617431640626 1.770075 1.3427867431640628 1.7517 Q 1.3109117431640627 1.733325 1.2726617431640628 1.733325 Q 1.2344117431640627 1.733325 1.2029117431640626 1.7517 Q 1.1714117431640627 1.770075 1.1515367431640626 1.8027 Q 1.1316617431640628 1.835325 1.1286617431640626 1.877325 Z M 1.6798930664062501 2.098575 Q 1.6318930664062503 2.098575 1.5906430664062503 2.082825 Q 1.5493930664062503 2.067075 1.5193930664062503 2.034825 L 1.5403930664062502 1.998825 Q 1.5733930664062503 2.029575 1.6067680664062503 2.04345 Q 1.6401430664062502 2.057325 1.6776430664062503 2.057325 Q 1.7233930664062502 2.057325 1.7518930664062502 2.03895 Q 1.7803930664062504 2.020575 1.7803930664062504 1.986075 Q 1.7803930664062504 1.962825 1.7665180664062503 1.95045 Q 1.7526430664062502 1.938075 1.7267680664062501 1.9302000000000001 Q 1.7008930664062503 1.922325 1.6648930664062502 1.913325 Q 1.6243930664062503 1.902075 1.5970180664062503 1.8897 Q 1.5696430664062502 1.877325 1.5557680664062503 1.8582 Q 1.5418930664062502 1.839075 1.5418930664062502 1.808325 Q 1.5418930664062502 1.770075 1.5610180664062503 1.74495 Q 1.5801430664062504 1.719825 1.6135180664062503 1.7067 Q 1.6468930664062502 1.693575 1.6881430664062502 1.693575 Q 1.7331430664062504 1.693575 1.7676430664062504 1.707825 Q 1.8021430664062503 1.722075 1.8238930664062503 1.7475749999999999 L 1.7991430664062502 1.782075 Q 1.7781430664062503 1.758075 1.7492680664062503 1.74645 Q 1.7203930664062503 1.734825 1.6851430664062503 1.734825 Q 1.6611430664062503 1.734825 1.6393930664062504 1.7412 Q 1.6176430664062502 1.7475749999999999 1.6037680664062504 1.7622 Q 1.5898930664062503 1.776825 1.5898930664062503 1.802325 Q 1.5898930664062503 1.823325 1.6003930664062502 1.83495 Q 1.6108930664062502 1.846575 1.6318930664062503 1.85445 Q 1.6528930664062502 1.862325 1.6836430664062503 1.8713250000000001 Q 1.7278930664062502 1.883325 1.7608930664062503 1.8957 Q 1.7938930664062502 1.908075 1.8118930664062503 1.927575 Q 1.8298930664062503 1.947075 1.8298930664062503 1.9823250000000001 Q 1.8298930664062503 2.037075 1.7886430664062503 2.067825 Q 1.7473930664062503 2.098575 1.6798930664062501 2.098575 Z M 2.108871459960938 2.072325 Q 2.1028714599609377 2.074575 2.0901214599609377 2.080575 Q 2.0773714599609376 2.086575 2.059371459960938 2.091075 Q 2.0413714599609376 2.095575 2.0203714599609377 2.095575 Q 1.9986214599609378 2.095575 1.979496459960938 2.087325 Q 1.9603714599609379 2.079075 1.9491214599609379 2.0622 Q 1.937871459960938 2.045325 1.937871459960938 2.020575 L 1.937871459960938 1.740825 L 1.8838714599609379 1.740825 L 1.8838714599609379 1.700325 L 1.937871459960938 1.700325 L 1.937871459960938 1.568325 L 1.9888714599609378 1.568325 L 1.9888714599609378 1.700325 L 2.0788714599609377 1.700325 L 2.0788714599609377 1.740825 L 1.9888714599609378 1.740825 L 1.9888714599609378 2.006325 Q 1.990371459960938 2.027325 2.004246459960938 2.037825 Q 2.0181214599609376 2.048325 2.036121459960938 2.048325 Q 2.0571214599609378 2.048325 2.074371459960938 2.0412 Q 2.0916214599609377 2.034075 2.095371459960938 2.031075 L 2.108871459960938 2.072325 Z M 2.339817260742188 2.098575 Q 2.297817260742188 2.098575 2.262192260742188 2.08245 Q 2.226567260742188 2.066325 2.200692260742188 2.0382000000000002 Q 2.174817260742188 2.010075 2.1605672607421877 1.9737 Q 2.146317260742188 1.937325 2.146317260742188 1.896825 Q 2.146317260742188 1.854825 2.1605672607421877 1.81845 Q 2.174817260742188 1.782075 2.201067260742188 1.7539500000000001 Q 2.227317260742188 1.725825 2.262942260742188 1.7097 Q 2.298567260742188 1.693575 2.340567260742188 1.693575 Q 2.3825672607421877 1.693575 2.4178172607421877 1.7097 Q 2.4530672607421877 1.725825 2.479317260742188 1.7539500000000001 Q 2.505567260742188 1.782075 2.519817260742188 1.81845 Q 2.5340672607421877 1.854825 2.5340672607421877 1.896825 Q 2.5340672607421877 1.937325 2.519817260742188 1.9737 Q 2.505567260742188 2.010075 2.479692260742188 2.0382000000000002 Q 2.4538172607421878 2.066325 2.4181922607421877 2.08245 Q 2.3825672607421877 2.098575 2.339817260742188 2.098575 Z M 2.198067260742188 1.897575 Q 2.198067260742188 1.941075 2.2171922607421877 1.9767000000000001 Q 2.236317260742188 2.012325 2.268567260742188 2.03295 Q 2.3008172607421877 2.053575 2.339817260742188 2.053575 Q 2.378817260742188 2.053575 2.411067260742188 2.032575 Q 2.443317260742188 2.011575 2.462817260742188 1.9752 Q 2.482317260742188 1.938825 2.482317260742188 1.896075 Q 2.482317260742188 1.852575 2.462817260742188 1.816575 Q 2.443317260742188 1.780575 2.411067260742188 1.759575 Q 2.378817260742188 1.738575 2.339817260742188 1.738575 Q 2.3008172607421877 1.738575 2.268942260742188 1.760325 Q 2.237067260742188 1.782075 2.2175672607421877 1.8177 Q 2.198067260742188 1.853325 2.198067260742188 1.897575 Z M 2.9555452880859376 2.091075 L 2.904545288085938 2.091075 L 2.904545288085938 1.872825 Q 2.904545288085938 1.803825 2.8842952880859376 1.77195 Q 2.8640452880859377 1.740075 2.820545288085938 1.740075 Q 2.7905452880859376 1.740075 2.761295288085938 1.7547000000000001 Q 2.7320452880859376 1.769325 2.7099202880859377 1.7944499999999999 Q 2.6877952880859377 1.819575 2.678045288085938 1.851825 L 2.678045288085938 2.091075 L 2.6270452880859376 2.091075 L 2.6270452880859376 1.700325 L 2.6735452880859376 1.700325 L 2.6735452880859376 1.788825 Q 2.6892952880859378 1.760325 2.714795288085938 1.73895 Q 2.740295288085938 1.717575 2.772545288085938 1.705575 Q 2.8047952880859377 1.693575 2.8392952880859377 1.693575 Q 2.8715452880859376 1.693575 2.8940452880859375 1.705575 Q 2.9165452880859375 1.717575 2.9300452880859376 1.7397 Q 2.9435452880859376 1.761825 2.949545288085938 1.79295 Q 2.9555452880859376 1.8240750000000001 2.9555452880859376 1.862325 L 2.9555452880859376 2.091075 Z M 3.24050537109375 2.098575 Q 3.19850537109375 2.098575 3.16250537109375 2.08245 Q 3.1265053710937503 2.066325 3.10025537109375 2.0382000000000002 Q 3.07400537109375 2.010075 3.05938037109375 1.973325 Q 3.0447553710937503 1.936575 3.0447553710937503 1.8945750000000001 Q 3.0447553710937503 1.839825 3.06988037109375 1.794075 Q 3.09500537109375 1.748325 3.13925537109375 1.72095 Q 3.18350537109375 1.693575 3.23975537109375 1.693575 Q 3.29750537109375 1.693575 3.34063037109375 1.721325 Q 3.3837553710937502 1.749075 3.4085053710937503 1.7944499999999999 Q 3.43325537109375 1.839825 3.43325537109375 1.893825 Q 3.43325537109375 1.899825 3.43325537109375 1.90545 Q 3.43325537109375 1.911075 3.43250537109375 1.914075 L 3.09800537109375 1.914075 Q 3.10175537109375 1.956075 3.12163037109375 1.9887 Q 3.14150537109375 2.021325 3.1733803710937503 2.04045 Q 3.20525537109375 2.059575 3.2427553710937502 2.059575 Q 3.28100537109375 2.059575 3.3151303710937503 2.040075 Q 3.34925537109375 2.020575 3.36275537109375 1.989075 L 3.4070053710937502 2.001075 Q 3.3950053710937502 2.028825 3.37025537109375 2.051325 Q 3.34550537109375 2.073825 3.31213037109375 2.0862 Q 3.27875537109375 2.098575 3.24050537109375 2.098575 Z M 3.09650537109375 1.877325 L 3.3852553710937503 1.877325 Q 3.38225537109375 1.834575 3.36238037109375 1.802325 Q 3.34250537109375 1.770075 3.31063037109375 1.7517 Q 3.27875537109375 1.733325 3.24050537109375 1.733325 Q 3.20225537109375 1.733325 3.17075537109375 1.7517 Q 3.13925537109375 1.770075 3.11938037109375 1.8027 Q 3.09950537109375 1.835325 3.09650537109375 1.877325 Z M 3.6477366943359373 2.098575 Q 3.5997366943359372 2.098575 3.5584866943359375 2.082825 Q 3.517236694335937 2.067075 3.4872366943359374 2.034825 L 3.5082366943359373 1.998825 Q 3.5412366943359372 2.029575 3.574611694335937 2.04345 Q 3.6079866943359375 2.057325 3.645486694335937 2.057325 Q 3.6912366943359376 2.057325 3.7197366943359373 2.03895 Q 3.7482366943359375 2.020575 3.7482366943359375 1.986075 Q 3.7482366943359375 1.962825 3.7343616943359375 1.95045 Q 3.7204866943359374 1.938075 3.6946116943359373 1.9302000000000001 Q 3.668736694335937 1.922325 3.6327366943359376 1.913325 Q 3.5922366943359374 1.902075 3.5648616943359372 1.8897 Q 3.5374866943359375 1.877325 3.5236116943359375 1.8582 Q 3.5097366943359374 1.839075 3.5097366943359374 1.808325 Q 3.5097366943359374 1.770075 3.528861694335937 1.74495 Q 3.5479866943359375 1.719825 3.5813616943359374 1.7067 Q 3.6147366943359374 1.693575 3.6559866943359376 1.693575 Q 3.7009866943359375 1.693575 3.7354866943359375 1.707825 Q 3.7699866943359375 1.722075 3.7917366943359374 1.7475749999999999 L 3.7669866943359374 1.782075 Q 3.7459866943359375 1.758075 3.7171116943359372 1.74645 Q 3.6882366943359375 1.734825 3.6529866943359375 1.734825 Q 3.6289866943359375 1.734825 3.6072366943359375 1.7412 Q 3.5854866943359376 1.7475749999999999 3.5716116943359375 1.7622 Q 3.5577366943359374 1.776825 3.5577366943359374 1.802325 Q 3.5577366943359374 1.823325 3.5682366943359374 1.83495 Q 3.5787366943359373 1.846575 3.5997366943359372 1.85445 Q 3.6207366943359376 1.862325 3.6514866943359374 1.8713250000000001 Q 3.6957366943359373 1.883325 3.7287366943359372 1.8957 Q 3.761736694335937 1.908075 3.7797366943359374 1.927575 Q 3.7977366943359376 1.947075 3.7977366943359376 1.9823250000000001 Q 3.7977366943359376 2.037075 3.7564866943359374 2.067825 Q 3.715236694335937 2.098575 3.6477366943359373 2.098575 Z" fill="#ffffff" fill-rule="nonzero"></path></g><g clip-path="url(&quot;#SvgjsClipPath1002&quot;)"><g clip-path="url(&quot;#SvgjsClipPath1000&quot;)"><path d=" M -0.42496645876581507 0.8039193312814383 C -0.5254664085322562 0.3616823286731972 -0.8875314438000803 0.026746774509776472 -1.3362422037180484 -0.03907465294982921 C -1.363189562608433 -0.04068590110253892 -1.3899405799242404 -0.04468722918646627 -1.416179991874859 -0.051031481093699815 L -1.5780107727906185 -0.051031481093699815 C -1.6456909320955377 -0.04027785578191894 -1.7137470922854856 -0.035389844276563005 -1.7801488485813088 -0.0180938035653075 C -2.170105106060518 0.08340275023505184 -2.473685339031025 0.3894623659249775 -2.5720067124488613 0.7802312755247147 C -2.587046747849955 0.8378346111109012 -2.5899043545761633 0.8973931512992304 -2.6029891853751157 0.9552972875934393 L -2.6029891853751157 1.1260016893958464 C -2.592837161479378 1.169692992236021 -2.5921603598863268 1.2148130984393033 -2.583662739884711 1.2587300018104925 C -2.556221863037057 1.4168945272120543 -2.4918058325875934 1.5663397178548084 -2.395662297371047 1.6948910284421916 C -2.2656842179350285 1.8723455949234356 -2.085923730195087 2.0071921343579424 -1.879187481697505 2.0823223403743523 C -1.7580528655755123 2.124678891484823 -1.6302753714098115 2.14485428530046 -1.501983393838093 2.14188088056268 C -1.2691139106284117 2.1475354214993265 -1.0409732557677518 2.075606567073753 -0.8534570673429596 1.937411599284821 C -0.6272080884969964 1.7759538288556072 -0.47180061126494266 1.5335924885179735 -0.419476845844414 1.2606100062356302 C -0.4110544260198048 1.2163171019794108 -0.4099264233647215 1.1708209948911046 -0.4003008007080222 1.1266784909888945 L -0.4003008007080222 0.9734957304287637 C -0.4091744215946669 0.9170955976746638 -0.412408029205904 0.8597930627964997 -0.42496645876581507 0.8039193312814383 Z M -2.496430534558371 0.7362391719765191 C -2.467110941990441 0.5879064537152037 -2.3973046267681855 0.450584261652336 -2.294743659829713 0.339483038095682 C -2.1873485052775288 0.2170280293632288 -2.0490195561828526 0.12568313376315934 -1.8942275170986047 0.07500401556745884 C -1.9017325291657308 0.08118393361108037 -1.9096190717651482 0.08688535135014838 -1.9178403726783204 0.09207445574769987 C -2.148331328510837 0.21489641929257064 -2.335233380026108 0.40594834772456334 -2.4529648322492124 0.6390805432854577 C -2.4668016648182194 0.6721686211678628 -2.4804880970332137 0.7049558983422455 -2.496430534558371 0.7366151728615463 Z M -2.416116745516535 0.7430823880840177 C -2.3927625360830196 0.6148828008639219 -2.3340255419913634 0.4957678234886935 -2.246540346369208 0.3991919786380239 C -2.1451901711333248 0.2807830916204244 -2.012971405013512 0.1928194746251835 -1.86459864735845 0.1450905805365544 C -1.9000931309050282 0.1739674485066517 -1.9424308305591067 0.1923162916959857 -1.9792037171147778 0.21953875577196585 C -2.1415152539656477 0.32187341865432356 -2.2742469341815195 0.46487106476189044 -2.364228623382764 0.6343429321341145 C -2.3793735476224915 0.6716992214651305 -2.3966994195414792 0.7081337724136129 -2.416116745516538 0.7434583889690418 Z M -2.3421949715201604 0.7806824765867499 C -2.321819549691779 0.6367600356286514 -2.2532054002922193 0.504012336230044 -2.147576913430015 0.40415519032038155 C -2.063300442163003 0.32081767204157796 -1.9615959581096718 0.25720100360721093 -1.8497842124883754 0.21788435187784716 C -1.8663489024161686 0.23548781331851892 -1.8862663354898288 0.24960132173528454 -1.908365150375631 0.25939484958486164 C -2.0610516441872733 0.34818649017072045 -2.18827228594548 0.4748373326376635 -2.2777484198264784 0.6271237151415872 C -2.3027607160718544 0.6769108114806399 -2.3242944331863833 0.7283706162070726 -2.3421949715201635 0.7811336776487852 Z M -2.269626800709885 0.8115145491589899 C -2.249256220065611 0.6518823002583859 -2.1651702493995577 0.5072815552194412 -2.0365062519929436 0.4106224055428545 C -1.9709405426682394 0.35568760528497373 -1.8948328068412634 0.31474195050247444 -1.8128609255786883 0.29030212233410957 C -1.897458949526 0.34298450339977543 -1.9769856853938337 0.4034036759489364 -2.050418284738957 0.4707825471472301 C -2.120498239154639 0.5342339944219466 -2.178821770741817 0.6095632523732609 -2.222701890258476 0.6932998709064004 C -2.2421787361028938 0.7313511604711648 -2.2524059601756345 0.773012058532192 -2.2696268007098883 0.8119657502210236 Z M -2.0653079197860347 0.5388387073371719 C -1.9914963097197802 0.4560644987549439 -1.8964865854248014 0.39501282041761104 -1.7905264730080654 0.3622686917283383 C -1.8692170237538526 0.4070335876830586 -1.9424068827027097 0.4608407529516665 -2.0086069863239135 0.5225954691039902 C -2.102921643713246 0.6115493245738131 -2.168251414725672 0.7268525706446816 -2.1960810275985394 0.853476247928038 C -2.1933911347788144 0.7360624900236801 -2.1467212838865675 0.6239367643032573 -2.0653079197860373 0.5392899083992071 Z M -2.1232872562572513 0.8531754472200187 C -2.115353189236113 0.7408625701008376 -2.0654792229610055 0.6356387015333368 -1.9835653273810954 0.5583907533585941 C -1.9170749709948085 0.49782908931054093 -1.837581164389777 0.45332284807212586 -1.7511967804342083 0.42829444713914194 C -1.8686255001235128 0.49679280940481074 -1.9711363268700315 0.5881294702026564 -2.0526742900491204 0.6969094794026633 C -2.0829002221712867 0.7457095381623906 -2.1066377523385897 0.7982405154655425 -2.1232872562572513 0.8531754472200187 Z M -1.925209990024856 0.6161444892987917 C -1.8693982814937287 0.5580252524064296 -1.797885502810848 0.517395960900447 -1.7193871055608994 0.49920821405529214 C -1.8161136272755656 0.5548823977349856 -1.9018885257529399 0.6277120649507715 -1.972510901361297 0.7141303199369141 C -2.0096005153709795 0.7656848123298652 -2.036081897621539 0.8240921081238195 -2.05041828473896 0.8859627243944029 C -2.047279836615152 0.7827624083861611 -2.0021665877157657 0.6853112722928376 -1.9255107907328783 0.6161444892987917 Z M -1.860387437446145 0.6488565662961696 C -1.812672926812731 0.6126556650607081 -1.7579839281827763 0.5867193562535244 -1.6997598593624692 0.572678786989633 C -1.8392393567278427 0.6408217856329493 -1.941020401024946 0.7676689283494664 -1.9773237126896464 0.9185996012147744 C -1.9894209259423146 0.8143059830233914 -1.9449598583197998 0.7114808060008556 -1.8606882381541645 0.6488565662961696 Z M -1.8370001823974456 0.7355623703834709 C -1.7917560439598923 0.692288135569115 -1.7362473835416736 0.6612343395309507 -1.6756958027207247 0.6453221579769131 C -1.7295615658771286 0.6769102528288758 -1.7786369257321126 0.716033798224105 -1.8214337457573135 0.7615064314503566 C -1.867008795155874 0.8141832408305603 -1.8953525433600813 0.8795575711793427 -1.902649936923214 0.9488300723709726 C -1.9191369762209618 0.8712686420101945 -1.8945293640039433 0.7906829742879482 -1.837526583636484 0.7355623703834709 Z M -1.8804658847066043 1.0455374999999987 C -1.8805248553470513 0.9532401285162251 -1.8467012575518287 0.8641320741980039 -1.7854128609718 0.7951209105719113 C -1.7289866805370224 0.7258855007777061 -1.6483283083503513 0.6807168123531702 -1.5598123299553004 0.6687846132026144 C -1.533905288061591 0.6657255867655908 -1.507760197140672 0.6652218277883096 -1.4817545462236243 0.6672806096625054 C -1.4693465170177233 0.6678822110785502 -1.457164088342838 0.6691606140876416 -1.4450568598449562 0.6708902181587667 L -1.438138443560453 0.6718678204598388 C -1.2555418796094482 0.7024237870467176 -1.1217261803801837 0.8604019788904371 -1.1216208985444474 1.0455374999999956 C -1.1216009470713022 1.1461428003456693 -1.1615574108244195 1.2426332975422936 -1.2326961023210563 1.313771989038935 C -1.303834793817693 1.3849106805355782 -1.400325291014308 1.4248671442887033 -1.5009305913600004 1.4248471928155662 C -1.6016270581964138 1.4250069355994759 -1.6982528720568038 1.3851121930825638 -1.7695054722885688 1.3139583392775696 C -1.8407580725203336 1.2428044854725753 -1.8807867797182334 1.1462340915376945 -1.8807666854146237 1.0455374999999987 Z M -1.1965954750189018 1.3242293559822544 C -1.151649981792195 1.2699930317380803 -1.1232488404862382 1.203976040595831 -1.1147776824369533 1.1340481083354317 C -1.1016781204529666 1.2007241767074195 -1.1147667676503221 1.2698839421453005 -1.1513249684616118 1.3271621628854677 C -1.204327591423912 1.3883559965091015 -1.276905655436302 1.4292824771312453 -1.3566966518635362 1.4429704354738857 C -1.2970388284533902 1.4128077485679609 -1.2429900773053002 1.3726463471266295 -1.1968962757269213 1.324229355982256 Z M -1.093345631990398 1.3031733064207234 C -1.0684149703946615 1.256205249814304 -1.0498286318337702 1.206135929609455 -1.0380735018913798 1.1542769559499004 C -1.0352969793768887 1.2375587787851217 -1.0639385643991774 1.3188396779861478 -1.118312090756213 1.3819830919224523 C -1.1746026531725238 1.4484019708103681 -1.2499449439062618 1.4959174921441898 -1.3341365987618976 1.5180954123023451 C -1.2381323323810993 1.466441892450267 -1.1557213519894107 1.3927925547518796 -1.0936464326984172 1.303173306420728 Z M -1.1454593546551852 1.4686136958327471 C -1.098530488331717 1.4285878166112445 -1.0575811752322524 1.3820418441456814 -1.0238606684373504 1.330395770496702 C -1.0048565635602216 1.2968716176801305 -0.9879784477281892 1.2621860849955515 -0.9733261494896754 1.2265443260521516 C -0.9861852229897186 1.32593237358345 -1.0342027131104166 1.4174323686467771 -1.1086864680995139 1.4844809331809017 C -1.1654824893842433 1.5333685509059325 -1.232728911440433 1.5685867421052158 -1.3052597307918035 1.5874299755013832 C -1.25427401078209 1.545017075670303 -1.1950162713017864 1.5137338020360278 -1.145684955186198 1.4689144965407712 Z M -1.0879312192460067 1.5257658303569 C -1.0293735968015554 1.4757583103001468 -0.9802004060258838 1.4157115035424885 -0.9427196774484499 1.3484438129780119 C -0.9230924312500262 1.312272527838384 -0.9161740149655195 1.2711380310163936 -0.8986523737232464 1.2339139433986885 C -0.9070288343855293 1.3470792916134706 -0.9603173393659183 1.4521941169863746 -1.046646322070005 1.5258410305339065 C -1.1096507578318602 1.5843370727956199 -1.1849305758195126 1.6280147828908424 -1.2669828406960169 1.6536813314431982 C -1.210056306702877 1.6084860250629158 -1.1418497461589192 1.5769771508976247 -1.088232019954023 1.5260666310649256 Z M -1.1146272820829468 1.6447325103795472 C -0.9817621301962505 1.5487100451542741 -0.8814658721733701 1.4143256554799717 -0.8272122055680546 1.259632403934558 C -0.8465504652962892 1.3789102164280127 -0.9011898839048154 1.489655883674824 -0.9840797748014578 1.5775787523136648 C -1.0551633295115375 1.6503491305666456 -1.1454002131344516 1.7015033535276838 -1.2443475874173748 1.72512149959839 C -1.2030626902413701 1.6960190310972767 -1.1548593767808653 1.6772189868459104 -1.1149280827909662 1.6450333110875712 Z M -0.9682125374533035 1.61465243957736 C -0.8960984128785507 1.5451108529352418 -0.8374598666950608 1.4628384231377984 -0.7952521303407327 1.3719814683807197 C -0.7811969515767705 1.3367575828728737 -0.7649986174365822 1.3024271599742094 -0.7467480161722053 1.269182826414254 C -0.7590914786288527 1.3800856385114093 -0.8054554070109281 1.4844504472717435 -0.8794763285868514 1.5679531296569642 C -0.9676135151491876 1.6656185715811898 -1.0775518728273257 1.7411094054215803 -1.2003554838691746 1.7882896482829804 C -1.117491805139565 1.7382659217486252 -1.0398263642832721 1.680098713530276 -0.968513338161326 1.6146524395773665 Z M -1.0892096222550998 1.8062624905872857 C -0.9303890162050032 1.7102695876222442 -0.8022474296117976 1.5709625696239278 -0.7198263528042523 1.404693545378099 C -0.7029815131550274 1.370251864309596 -0.6931302899673122 1.3329525765148849 -0.6741046451849269 1.2994132975704475 C -0.687124549314589 1.4080011196016953 -0.7307879039915766 1.5106386946637869 -0.7999897414920791 1.595325994086954 C -0.900416458206019 1.7250596537757354 -1.0376840374324172 1.8214379025470675 -1.1938130684697 1.8718370449360542 C -1.163131396251468 1.8445393806830723 -1.1226737010225274 1.8307777482910716 -1.0895104229631158 1.8062624905872904 Z M -0.9012091797414354 1.7545999689845322 C -0.8101728273658189 1.6781849707498349 -0.7325495216282267 1.5870906918488716 -0.6715478391667409 1.4850825345969434 C -0.6469573812859548 1.4446248393680028 -0.6332709490709607 1.3984519306866483 -0.6074020881810782 1.3587462372277608 C -0.6409619659632189 1.5009704176786518 -0.7155664376617454 1.630201156947535 -0.8219481931776729 1.7303855119887732 C -0.919444372674042 1.8280001000826147 -1.0389532926998695 1.9007782986827186 -1.1704258134210002 1.9426004114981978 C -1.0753959694325472 1.8878360565996264 -0.9852944701376081 1.8249335857151447 -0.901133979564426 1.7545999689845353 Z M -0.6981687018266778 1.718955085083941 C -0.7965844547797318 1.8403025579811991 -0.9251581981054249 1.933659854466172 -1.0710111794197754 1.9896757223036163 C -1.0893612307416993 1.9996634783267233 -1.1095451402198084 2.0058286521977298 -1.1303441190770884 2.0077989649619328 C -1.0900368242021574 1.979824499115901 -1.0447663176448674 1.959219650616402 -1.004609423123949 1.9307939837083368 C -0.8418500669005127 1.8224971945567539 -0.7046577670973684 1.68001839760444 -0.6025892768527288 1.513282600973991 C -0.5767204159628494 1.4712457020279364 -0.560627578083682 1.4242455913995196 -0.5357363194948705 1.3819830919224476 C -0.5640352105576323 1.5050712535984683 -0.6196229834349061 1.62023020425176 -0.6983943023576906 1.7189550850839441 Z" fill="url(#gradient-7390ff35-6ca3-45bc-8dbe-8cb01c93fd9c_0)" transform="matrix(1,0,0,1,0,0)" fill-rule="nonzero"></path></g></g></g><defs><clipPath id="SvgjsClipPath1002"><path d=" M -2.6029891853751157 -0.051031481093699815 h 2.202989185375116 v 2.1931379621873996 h -2.202989185375116 Z"></path></clipPath><clipPath id="SvgjsClipPath1000"><path d=" M -2.6029891853751157 -0.051031481093699815 L -0.3999999999999999 -0.051031481093699815 L -0.3999999999999999 2.1421064810937 L -2.6029891853751157 2.1421064810937 Z"></path></clipPath><linearGradient id="gradient-7390ff35-6ca3-45bc-8dbe-8cb01c93fd9c_0" x1="0" x2="1" y1="0" y2="1"><stop stop-color="#d4d6c9" offset="0"></stop><stop stop-color="#4285F4" offset="1"></stop></linearGradient></defs></svg>